<?xml version="1.0" encoding="UTF-8"?>
<!DOCTYPE svg PUBLIC "-//W3C//DTD SVG 1.1//EN" "http://www.w3.org/Graphics/SVG/1.1/DTD/svg11.dtd">
<!-- Creator: CorelDRAW 2017 -->
<svg xmlns="http://www.w3.org/2000/svg" xml:space="preserve" width="1988px" height="721px" version="1.1" style="shape-rendering:geometricPrecision; text-rendering:geometricPrecision; image-rendering:optimizeQuality; fill-rule:evenodd; clip-rule:evenodd"
viewBox="0 0 1988 721.02"
 xmlns:xlink="http://www.w3.org/1999/xlink">
 <defs>
  <style type="text/css">
   <![CDATA[
    .str0 {stroke:#FEFEFE;stroke-width:2.36;stroke-miterlimit:22.9256}
    .fil0 {fill:#FEFEFE}
    .fil1 {fill:#2B2A29}
    .fil2 {fill:#C9DB03}
    .fil3 {fill:#2B2A29;fill-rule:nonzero}
   ]]>
  </style>
 </defs>
 <g id="Слой_x0020_1">
  <metadata id="CorelCorpID_0Corel-Layer"/>
  <polygon class="fil0 str0" points="-379.06,-147.27 2368.46,-147.27 2368.46,864.37 -379.06,864.37 "/>
  <polygon class="fil1" points="48.11,413.31 212.84,413.31 197.99,439.53 48.11,439.53 48.11,542.94 221.8,542.94 206.95,569.17 22.4,569.17 22.4,292.85 221.15,292.85 206.3,319.07 48.11,319.07 "/>
  <polygon class="fil1" points="1193.84,542.95 1373.81,542.95 1358.97,569.17 1168.13,569.17 1168.13,292.85 1193.84,292.85 "/>
  <path class="fil1" d="M985.76 549.24c10.89,-0.3 22.4,-1.36 32.93,-4.33 8.61,-2.42 16.45,-6.54 22.58,-13.25 15.39,-16.87 16.7,-49.23 16.7,-71.04l0 -58.29c0,-33.93 -2.07,-73.17 -39.39,-84.12 -27.91,-8.17 -76.12,-4.58 -105.9,-4.58 -12.91,0 -26.91,0.9 -39.38,4.41 -8.52,2.4 -16.31,6.48 -22.32,13.18 -15.2,16.97 -16.6,49.34 -16.6,71.11l0 58.29c0,64.66 14.49,88.71 78.3,88.71 24.27,0 48.88,0.38 73.08,-0.09zm-69.49 26.2c-79.45,0 -107.89,-34.39 -107.89,-117.57l0 -52.85c0,-48.8 6.44,-94 56.71,-111.24 16.17,-5.55 34.15,-7.19 51.13,-7.19 22.02,0 44.62,-0.51 66.55,0.09 47.13,1.29 81.74,15.75 95.01,67.21 4.26,16.49 5.63,34.11 5.63,51.13l0 52.85c0,16.81 -1.33,34.21 -5.43,50.55 -7.88,31.31 -20.97,49.69 -50.86,59.85 -14.34,4.87 -29.95,6.7 -44.99,7.09 -21.73,0.56 -44.06,0.08 -65.86,0.08z"/>
  <polygon class="fil1" points="1743.02,292.85 1986.45,292.85 1971.61,319.08 1869.51,319.08 1869.51,569.17 1843.8,569.17 1843.8,319.08 1728.17,319.08 "/>
  <polygon class="fil1" points="1482.85,413.31 1647.57,413.31 1632.72,439.53 1482.85,439.53 1482.85,542.94 1656.52,542.94 1641.68,569.17 1457.14,569.17 1457.14,292.85 1655.88,292.85 1641.04,319.07 1482.85,319.07 "/>
  <path class="fil2" d="M548.69 455.12l153.4 -271.04 -400.83 0 18.53 -32.76c145.99,0 291.98,-0.03 437.94,-0.03l-190.5 336.59 -18.54 -32.76z"/>
  <path class="fil2" d="M413.79 293.12l154.65 273.23 200.41 -354.09 18.55 32.75c-72.99,128.96 -145.97,257.94 -218.95,386.88l-191.74 -338.77 37.08 0z"/>
  <path class="fil2" d="M618.37 254.86l-308.45 0 200.42 354.1 -37.08 0c-72.99,-128.96 -146.01,-257.92 -218.98,-386.85l382.62 0 -18.53 32.75z"/>
  <path class="fil3" d="M839.92 151.29l27.72 0 0 5.5 -22.18 0 0 17.67 22.18 0 0 5.5 -22.18 0 0 27.72 -5.54 0 0 -56.39zm66.36 0l25.79 56.39 -5.94 0 -8.64 -18.53 -23.96 0 -8.58 18.53 -6.16 0 26.1 -56.39 1.39 0zm-0.7 11.84l-9.5 20.52 18.97 0 -9.47 -20.52zm40.63 -11.84l5.55 0 0 56.39 -5.55 0 0 -56.39zm19.1 5.5l0 -5.5 30.26 0 0 5.5 -12.32 0 0 50.89 -5.62 0 0 -50.89 -12.32 0zm44.57 -5.5l5.54 0 0 23.64 28.18 0 0 -23.64 5.54 0 0 56.39 -5.54 0 0 -27.25 -28.18 0 0 27.25 -5.54 0 0 -56.39zm73.21 0l5.55 0 0 56.39 -5.55 0 0 -56.39zm24.64 56.39l0 -56.39 1.2 0 36.76 43.13 0 -43.13 5.54 0 0 56.39 -1.25 0 -36.55 -42.75 0 42.75 -5.7 0zm122.13 -56.39l25.79 56.39 -5.94 0 -8.63 -18.53 -23.96 0 -8.58 18.53 -6.16 0 26.1 -56.39 1.38 0zm-0.69 11.84l-9.51 20.52 18.98 0 -9.47 -20.52zm77.55 -11.84l5.54 0 0 23.64 28.18 0 0 -23.64 5.54 0 0 56.39 -5.54 0 0 -27.25 -28.18 0 0 27.25 -5.54 0 0 -56.39zm59.15 0l31.64 0 0 5.5 -26.1 0 0 17.67 25.87 0 0 5.5 -25.87 0 0 22.22 25.87 0 0 5.5 -31.41 0 0 -56.39zm70.23 0l25.79 56.39 -5.94 0 -8.64 -18.53 -23.96 0 -8.58 18.53 -6.16 0 26.1 -56.39 1.39 0zm-0.7 11.84l-9.51 20.52 18.98 0 -9.47 -20.52zm41.4 -11.84l5.54 0 0 50.89 21.33 0 0 5.5 -26.87 0 0 -56.39zm36.49 5.5l0 -5.5 30.25 0 0 5.5 -12.32 0 0 50.89 -5.62 0 0 -50.89 -12.31 0zm44.56 -5.5l5.55 0 0 23.64 28.17 0 0 -23.64 5.55 0 0 56.39 -5.55 0 0 -27.25 -28.17 0 0 27.25 -5.55 0 0 -56.39zm54.76 0l6.32 0 14.3 23.55 14.05 -23.55 6.29 0 -17.56 29.43 0 26.96 -5.54 0 0 -26.96 -17.86 -29.43zm92.5 0l27.72 0 0 5.5 -22.18 0 0 17.67 22.18 0 0 5.5 -22.18 0 0 27.72 -5.54 0 0 -56.39zm43.95 0l5.54 0 0 34.06c0,4.03 0.08,6.56 0.24,7.55 0.26,2.23 0.91,4.09 1.91,5.58 1,1.49 2.54,2.75 4.62,3.76 2.07,1 4.17,1.51 6.28,1.51 1.83,0 3.58,-0.39 5.26,-1.19 1.67,-0.78 3.08,-1.88 4.21,-3.3 1.13,-1.39 1.95,-3.1 2.48,-5.09 0.37,-1.44 0.56,-4.37 0.56,-8.82l0 -34.06 5.55 0 0 34.03c0,5.04 -0.49,9.11 -1.45,12.22 -0.96,3.1 -2.9,5.81 -5.79,8.1 -2.9,2.3 -6.4,3.45 -10.52,3.45 -4.47,0 -8.29,-1.08 -11.47,-3.25 -3.2,-2.18 -5.33,-5.04 -6.41,-8.63 -0.68,-2.2 -1.01,-6.15 -1.01,-11.89l0 -34.03zm51.11 5.5l0 -5.5 30.26 0 0 5.5 -12.32 0 0 50.89 -5.62 0 0 -50.89 -12.32 0zm44.88 -5.5l5.54 0 0 34.06c0,4.03 0.08,6.56 0.23,7.55 0.27,2.23 0.91,4.09 1.91,5.58 1.01,1.49 2.55,2.75 4.62,3.76 2.08,1 4.17,1.51 6.29,1.51 1.82,0 3.58,-0.39 5.26,-1.19 1.67,-0.78 3.08,-1.88 4.21,-3.3 1.13,-1.39 1.95,-3.1 2.48,-5.09 0.37,-1.44 0.56,-4.37 0.56,-8.82l0 -34.06 5.55 0 0 34.03c0,5.04 -0.49,9.11 -1.45,12.22 -0.97,3.1 -2.9,5.81 -5.79,8.1 -2.9,2.3 -6.4,3.45 -10.52,3.45 -4.47,0 -8.29,-1.08 -11.47,-3.25 -3.2,-2.18 -5.33,-5.04 -6.41,-8.63 -0.68,-2.2 -1.01,-6.15 -1.01,-11.89l0 -34.03zm56.89 0l11.03 0c6.15,0 10.32,0.27 12.5,0.78 3.3,0.76 5.97,2.39 8.02,4.92 2.06,2.51 3.09,5.61 3.09,9.29 0,3.06 -0.71,5.76 -2.13,8.08 -1.41,2.33 -3.44,4.08 -6.08,5.27 -2.63,1.19 -6.28,1.8 -10.92,1.82l19.9 26.23 -6.79 0 -19.9 -26.23 -3.18 0 0 26.23 -5.54 0 0 -56.39zm5.54 5.5l0 19.16 9.54 0.08c3.71,0 6.45,-0.35 8.22,-1.07 1.77,-0.72 3.15,-1.86 4.15,-3.43 0.99,-1.57 1.49,-3.32 1.49,-5.28 0,-1.88 -0.5,-3.61 -1.51,-5.15 -1,-1.54 -2.32,-2.65 -3.97,-3.31 -1.63,-0.67 -4.35,-1 -8.14,-1l-9.78 0zm47.35 -5.5l31.64 0 0 5.5 -26.1 0 0 17.67 25.87 0 0 5.5 -25.87 0 0 22.22 25.87 0 0 5.5 -31.41 0 0 -56.39z"/>
 </g>
</svg>
